<?xml version="1.0" encoding="utf-8"?>
<svg viewBox="0 0 600 500" xmlns="http://www.w3.org/2000/svg" xmlns:xlink="http://www.w3.org/1999/xlink" xmlns:bx="https://boxy-svg.com">
  <defs>
    <bx:grid x="-150.627" y="485.352" width="100.213" height="97.908"/>
    <pattern x="0" y="0" width="25" height="25" patternUnits="userSpaceOnUse" viewBox="0 0 100 100" id="pattern-0">
      <title>Circulo 1</title>
      <rect x="0" y="0" width="50" height="100" style="fill: rgb(202, 115, 231); stroke-width: 2px;"/>
    </pattern>
    <pattern id="pattern-0-0" patternTransform="matrix(-0.185122, -0.591917, 0.695625, -0.217556, 100.361787, 121.671312)" xlink:href="#pattern-0"/>
    <linearGradient gradientUnits="userSpaceOnUse" x1="247.048" y1="251.255" x2="247.048" y2="416.81" id="gradient-0" gradientTransform="matrix(0.838689, -0.18027, 1.167809, 0.185853, -115.962302, 83.841188)" spreadMethod="pad">
      <stop offset="0" style="stop-color: rgb(241, 82, 180);"/>
      <stop offset="0.734" style="stop-color: rgb(138, 85, 209);"/>
      <stop offset="1" style="stop-color: rgb(20, 60, 222);"/>
    </linearGradient>
    <pattern id="pattern-1" patternTransform="matrix(-0.119642, -0.382547, 0.449571, -0.140603, 502.64793, 208.847003)" xlink:href="#pattern-2"/>
    <pattern x="0" y="0" width="25" height="25" patternUnits="userSpaceOnUse" viewBox="0 0 100 100" id="pattern-2">
      <title>Circulo 2</title>
      <rect x="0" y="0" width="50" height="100" style="fill: rgb(92, 37, 165);"/>
    </pattern>
    <linearGradient gradientUnits="userSpaceOnUse" x1="247.048" y1="251.255" x2="247.048" y2="416.81" id="gradient-1" gradientTransform="matrix(-0.642668, 0.664884, -0.902144, -0.907582, 574.05587, 532.573311)" spreadMethod="pad">
      <stop offset="0" style="stop-color: rgb(241, 82, 180);"/>
      <stop offset="0.855" style="stop-color: rgb(138, 85, 209);"/>
      <stop offset="1" style="stop-color: rgb(53, 89, 234);"/>
    </linearGradient>
    <linearGradient gradientUnits="userSpaceOnUse" x1="247.048" y1="251.255" x2="247.048" y2="416.81" id="gradient-2" gradientTransform="matrix(-0.47988, 0.127037, -0.67363, -0.173408, 757.664314, 370.500857)" spreadMethod="pad">
      <stop offset="0" style="stop-color: rgb(164, 44, 118);"/>
      <stop offset="0.315" style="stop-color: rgb(138, 85, 209);"/>
      <stop offset="1" style="stop-color: rgb(77, 105, 219);"/>
    </linearGradient>
    <linearGradient gradientUnits="userSpaceOnUse" x1="247.048" y1="251.255" x2="247.048" y2="416.81" id="gradient-3" gradientTransform="matrix(-0.00659, -0.553749, 0.561117, 0.73966, 384.718729, 175.972435)" spreadMethod="pad">
      <stop offset="0" style="stop-color: rgb(215, 9, 136);"/>
      <stop offset="1" style="stop-color: rgb(30, 63, 195);"/>
    </linearGradient>
    <linearGradient gradientUnits="userSpaceOnUse" x1="247.048" y1="251.255" x2="247.048" y2="416.81" id="gradient-4" gradientTransform="matrix(-0.260638, 0.269647, -0.36587, -0.368075, 621.559341, 503.726065)" spreadMethod="pad">
      <stop offset="0" style="stop-color: rgb(241, 82, 180);"/>
      <stop offset="0.176" style="stop-color: rgb(138, 85, 209);"/>
      <stop offset="1" style="stop-color: rgb(53, 89, 234);"/>
    </linearGradient>
  </defs>
  <rect width="600" height="500" style="fill-opacity: 0.88; fill: rgb(7, 0, 8);"/>
  <path d="M 191.445 114.943 C 191.445 159.1 155.648 194.897 111.491 194.897 C 67.334 194.897 31.537 159.1 31.537 114.943 C 31.537 70.786 67.334 34.989 111.491 34.989 C 155.648 34.989 191.445 70.786 191.445 114.943 Z" style="fill-rule: evenodd; fill: url(#pattern-0-0); fill-opacity: 0.5; paint-order: fill; stroke-width: 2px; stroke-opacity: 0.5; stroke: rgba(76, 51, 78, 0);" transform="matrix(0.302172, -0.953253, 0.953253, 0.302172, -31.768272, 186.489609)"/>
  <rect x="385.349" y="84.494" width="196.62" height="36.021" style="fill: url(#gradient-0); stroke-width: 2px; fill-opacity: 0.5; paint-order: fill; stroke-opacity: 0.5; stroke: rgba(76, 51, 78, 0);" transform="matrix(0.986714, -0.162469, 0.162469, 0.986714, -8.335186, 73.632782)"/>
  <g transform="matrix(1.046018, 0, 0, 1.046018, 209.249786, 34.100998)"/>
  <path d="M 561.513 204.498 C 561.513 233.036 538.378 256.171 509.84 256.171 C 481.302 256.171 458.166 233.036 458.166 204.498 C 458.166 175.96 481.302 152.825 509.84 152.825 C 538.378 152.825 561.513 175.96 561.513 204.498 Z" style="fill-rule: evenodd; fill: url(#pattern-1); fill-opacity: 0.5; paint-order: fill; stroke-opacity: 0.5; stroke-width: 2px; stroke: rgba(76, 51, 78, 0);" transform="matrix(0.817354, -0.576136, 0.576136, 0.817354, -24.698447, 331.0876)"/>
  <rect x="39.012" y="318.79" width="150" height="150" style="fill: url(#gradient-1); fill-opacity: 0.5; paint-order: fill; stroke-opacity: 0.5; stroke: rgba(76, 51, 78, 0);"/>
  <rect x="-257.636" y="-23.921" width="230" height="4.985" style="stroke-width: 2px; fill: rgb(190, 112, 223); fill-opacity: 0.5; paint-order: fill; stroke-opacity: 0.5; stroke: rgba(76, 51, 78, 0);" transform="matrix(0.879404, -0.476076, -0.544813, -0.842193, 205.99327, 200.200724)"/>
  <rect x="179.224" y="23.924" width="160" height="4.985" style="fill: rgb(90, 72, 210); stroke-width: 2px; fill-opacity: 0.5; paint-order: fill; stroke-opacity: 0.5; stroke: rgba(76, 51, 78, 0);" transform="matrix(0.731997, 0.681308, 0.624093, -0.78525, 289.856505, 239.942126)"/>
  <rect x="358.147" y="329.654" width="112.004" height="28.66" style="fill: url(#gradient-2); stroke-width: 2px; fill-opacity: 0.5; paint-order: fill; stroke-opacity: 0.5; stroke: rgba(76, 51, 78, 0);" transform="matrix(-0.732684, 0.680569, -0.680569, -0.732684, 870.284058, 308.025879)"/>
  <rect x="524.245" y="218.771" width="48.063" height="149.047" style="stroke-width: 2px; fill: url(#gradient-3); fill-opacity: 0.5; paint-order: fill; stroke-opacity: 0.5; stroke: rgba(76, 51, 78, 0);"/>
  <rect x="404.569" y="417.025" width="60.833" height="60.833" style="stroke-width: 2px; fill: url(#gradient-4); fill-opacity: 0.5; paint-order: fill; stroke-opacity: 0.5; stroke: rgba(76, 51, 78, 0);"/>
  <rect x="-168.023" y="-23.921" width="150" height="4.985" style="stroke-width: 2px; fill: rgb(190, 112, 223); fill-opacity: 0.5; paint-order: fill; stroke-opacity: 0.5; stroke: rgba(76, 51, 78, 0);" transform="matrix(0.956302, 0.292381, 0.217634, -0.979155, 396.911594, 134.565522)"/>
</svg>