<?xml version="1.0" encoding="utf-8"?>
<svg viewBox="0 0 500 500" xmlns="http://www.w3.org/2000/svg" xmlns:bx="https://boxy-svg.com">
  <defs>
    <bx:grid x="0" y="0" width="80.69" height="80.402"/>
  </defs>
  <g transform="matrix(3.682511, 0, 0, 4.352968, 76.336151, -31.739569)" style="">
    <path style="fill: none; stroke-miterlimit: 50; stroke-dashoffset: -50px; stroke: rgb(238, 238, 238); stroke-width: 3.71629px; paint-order: fill;" d="M 44.246 11.439 C 53.842 10.747 74.796 7.206 88.967 14.036 C 103.137 20.867 109.058 33.192 111.024 39.89 C 113.539 48.453 114.444 60.952 109.748 71.571 C 105.443 81.305 100.719 87.656 95.343 92.815 C 88.122 99.746 81.517 107.013 72.662 112.102 C 65.412 116.268 54.086 120.333 43.443 120.146 C 36.01 120.016 26.452 119.962 10.599 113.917 C -31.825 97.739 -18.497 61.225 -9.2 50.687 C 0.097 40.149 -1.76 41.93 -1.76 41.93 C -1.76 41.93 -10.247 40.361 -6.671 32.983 C -3.094 25.604 6.185 13.392 7.861 12.33 C 9.551 11.283 15.029 9.591 17.977 11.492 C 20.925 13.392 20.925 16.132 20.925 16.132 C 20.925 16.132 29.227 12.524 44.246 11.439 Z"/>
    <path style="stroke-width: 3.71629px; stroke: rgb(238, 238, 238); fill: rgb(238, 238, 238);" d="M 69.1 33.627 C 67.977 31.186 62.245 33.627 60.809 37.278 C 58.983 41.917 60.809 46.407 63.473 51.465 C 65.299 54.922 73.589 65.653 83.138 63.408 C 94.242 60.789 91.144 43.459 90.725 41.498 C 90.306 39.537 88.974 36.918 86.655 37.278 C 83.99 37.697 85.263 42.127 85.398 45.42 C 85.532 49.071 85.682 55.252 81.327 56.24 C 76.673 57.287 73.38 54.234 70.79 50.059 C 68.262 45.987 65.313 42.89 66.151 39.104 C 66.675 36.77 69.938 35.452 69.1 33.627 Z"/>
    <path style="fill: none; stroke: rgb(238, 238, 238); stroke-width: 3.71629px;" d="M -2.344 94.968 C -3.402 97.086 5.525 107.552 11.468 99.961 C 11.662 111.953 28.19 110.29 27.967 105.754"/>
    <path style="stroke: rgb(238, 238, 238); stroke-width: 3.71629px; fill: rgb(238, 238, 238);" d="M 12.216 28.987 C 10.091 28.164 7.576 31.382 5.197 33.342 C 2.817 35.303 -1.538 37.832 -3.228 35.736 C -4.98 33.536 0.543 27.774 3.789 22.252 C 6.604 17.478 9.237 12.001 12.919 11.716 C 18.397 11.297 14.131 8.843 10.105 9.607 C 7.157 10.176 3.087 12.839 0.842 17.329 C -1.403 21.818 -12.089 33.208 -8.571 38.401 C -4.531 44.386 4.344 41.633 8.28 38.401 C 12.216 35.167 14.745 29.974 12.216 28.987 Z"/>
    <path style="fill: rgb(255, 255, 255); stroke: rgb(238, 238, 238); stroke-width: 3.71629px;" d="M 19.235 71.968 C 11.512 70.561 -0.789 72.716 -1.688 81.381 C -2.39 88.116 1.964 96.272 16.151 99.355 C 30.339 102.438 37.358 97.11 38.061 89.523 C 38.764 81.95 30.758 74.078 19.235 71.968 Z"/>
    <path style="fill: rgb(58, 58, 58);" d="M 14.326 84.046 C 14.625 87.442 13.698 89.897 11.662 90.092 C 9.626 90.271 6.768 87.877 6.469 84.479 C 6.169 81.083 7.068 78.298 9.701 78.298 C 11.737 78.298 14.012 80.648 14.326 84.046 Z"/>
    <ellipse transform="matrix(0.094097, -0.995563, 0.995563, 0.094097, -58.142795, 111.351637)" style="fill: rgb(58, 58, 58);" cx="32.35" cy="78.96" rx="5.896" ry="3.921"/>
    <ellipse transform="matrix(0.098504, -0.995137, 0.995137, 0.098504, -17.220926, 113.407654)" style="fill: rgb(255, 255, 255); stroke: rgb(238, 238, 238); stroke-width: 3.71668px;" cx="52.65" cy="66.23" rx="7.229" ry="6.136"/>
    <ellipse transform="matrix(0.098504, -0.995137, 0.995137, 0.098504, -52.878596, 75.293757)" style="fill: rgb(255, 255, 255); stroke: rgb(238, 238, 238); stroke-width: 3.71668px;" cx="22.84" cy="60.19" rx="7.154" ry="6.33"/>
    <ellipse style="fill: rgb(58, 58, 58);" cx="56.619" cy="66.709" rx="2.851" ry="4.032"/>
    <ellipse style="fill: rgb(58, 58, 58);" cx="11.684" cy="56.975" rx="2.851" ry="4.032"/>
  </g>
</svg>