<?xml version="1.0" encoding="utf-8"?>
<svg viewBox="0 0 500 500" xmlns="http://www.w3.org/2000/svg" xmlns:bx="https://boxy-svg.com">
  <defs>
    <bx:grid x="0" y="0" width="66.727" height="70.391"/>
  </defs>
  <g transform="matrix(2.968602, 0, 0, 2.968602, 107.740013, 57.61573)" style="">
    <path style="fill: none; stroke: rgb(0, 0, 0); stroke-width: 2.35801px;" d="M 46.213 28.755 C 52.625 28.292 66.626 25.926 76.095 30.49 C 85.564 35.054 89.52 43.29 90.834 47.766 C 92.514 53.487 93.119 61.839 89.981 68.935 C 87.105 75.439 83.948 79.683 80.356 83.13 C 75.531 87.761 71.117 92.617 65.2 96.017 C 60.356 98.801 52.788 101.517 45.676 101.393 C 40.709 101.306 34.111 101.785 23.73 97.23 C -1.61 86.1 4.3 62.02 10.5 54.98 C 16.7 47.94 15.472 49.129 15.472 49.129 C 15.472 49.129 9.8 48.08 12.19 43.15 C 14.58 38.22 20.78 30.06 21.9 29.35 C 23.03 28.65 26.69 27.52 28.66 28.79 C 30.63 30.06 30.63 31.89 30.63 31.89 C 30.63 31.89 36.177 29.48 46.213 28.755 Z"/>
    <path style="" d="M62.82,43.58c-0.75-1.63-4.58,0-5.54,2.44c-1.22,3.1,0,6.1,1.78,9.48c1.22,2.31,6.76,9.48,13.14,7.98 c7.42-1.75,5.35-13.33,5.07-14.64c-0.28-1.31-1.17-3.06-2.72-2.82c-1.78,0.28-0.93,3.24-0.84,5.44c0.09,2.44,0.19,6.57-2.72,7.23 c-3.11,0.7-5.31-1.34-7.04-4.13c-1.69-2.72-3.66-4.79-3.1-7.32C61.2,45.68,63.38,44.8,62.82,43.58z"/>
    <path style="fill: none; stroke: rgb(0, 0, 0); stroke-width: 1.68429px;" d="M 15.287 83.056 C 14.58 84.471 20.545 91.464 24.516 86.392 C 24.646 94.405 35.69 93.294 35.541 90.263"/>
    <path style="" d="M24.81,40.48c-1.42-0.55-3.1,1.6-4.69,2.91s-4.5,3-5.63,1.6c-1.17-1.47,2.52-5.32,4.69-9.01 c1.88-3.19,3.64-6.85,6.1-7.04c3.66-0.28,0.81-1.92-1.88-1.41c-1.97,0.38-4.69,2.16-6.19,5.16S8.57,43.3,10.92,46.77 c2.7,4,8.63,2.16,11.26,0C24.81,44.61,26.5,41.14,24.81,40.48z"/>
    <path style="" d="M29.5,69.2c-5.16-0.94-13.38,0.5-13.98,6.29c-0.47,4.5,2.44,9.95,11.92,12.01 c9.48,2.06,14.17-1.5,14.64-6.57C42.55,75.87,37.2,70.61,29.5,69.2z"/>
    <path style="fill: rgb(255, 255, 255);" d="M26.22,77.27c0.2,2.27-0.42,3.91-1.78,4.04c-1.36,0.12-3.27-1.48-3.47-3.75 c-0.2-2.27,0.4-4.13,2.16-4.13C24.49,73.43,26.01,75,26.22,77.27z"/>
    <ellipse transform="matrix(0.0941 -0.9956 0.9956 0.0941 -49.2991 103.738)" style="fill: rgb(255, 255, 255);" cx="32.35" cy="78.96" rx="3.94" ry="2.62"/>
    <ellipse transform="matrix(0.0985 -0.9951 0.9951 0.0985 -18.4459 112.1081)" style="" cx="52.65" cy="66.23" rx="4.83" ry="4.1"/>
    <ellipse transform="matrix(0.0985 -0.9951 0.9951 0.0985 -39.304 76.996)" style="" cx="22.84" cy="60.19" rx="4.78" ry="4.23"/>
    <ellipse style="fill: rgb(248, 248, 248);" cx="54.48" cy="65.686" rx="1.905" ry="2.694"/>
    <ellipse style="fill: rgb(248, 248, 248);" cx="24.455" cy="59.182" rx="1.905" ry="2.694"/>
  </g>
</svg>